<?xml version="1.0" encoding="utf-8"?>
<!DOCTYPE svg PUBLIC "-//W3C//DTD SVG 1.1//EN" "http://www.w3.org/Graphics/SVG/1.1/DTD/svg11.dtd">
<svg height="1024" version="1.1" viewBox="0 0 1280 1024" width="1280" xml:space="preserve" xmlns="http://www.w3.org/2000/svg" xmlns:xlink="http://www.w3.org/1999/xlink">
<desc>Created with Fabric.js 5.3.0</desc>
<defs>
</defs>

<g id="logo-logo" transform="matrix(1.9211538461538462 0 0 1.9211538461538462 640 391.9643483655177)">
<g paint-order="stroke" style="">
<g transform="matrix(1.0045875257620291 0 0 1.0045875257620291 0 2.842171e-14)">
<g paint-order="stroke" style="">
<g transform="matrix(1 0 0 1 0 0)">
<linearGradient gradientTransform="matrix(1 0 0 1 0.04502624017267465 0)" gradientUnits="userSpaceOnUse" id="SVGID_2_113571" x1="0" x2="0" y1="0" y2="200">
<stop offset="0%" style="stop-color:rgb(91,36,122);stop-opacity: 1"/>
<stop offset="100%" style="stop-color:rgb(27,206,223);stop-opacity: 1"/>
</linearGradient>
<path d="M 112.09 191.37 C 135.9117490394676 191.40289133956588 158.9506802854889 182.86666739153304 176.99999999999994 167.32000000000002 C 147.7179015429597 198.87132642292275 101.79417391434797 208.67073452469424 62.18382600148399 191.81998298906535 C 22.57347808862002 174.96923145343652 -2.2153738259665374 135.08778239239209 0.20799604130064608 92.11040732620118 C 2.6313659085678296 49.13303226001028 31.74642911720025 12.291069054864465 72.99999999999994 0 C 29.42401103025805 18.558548374292283 4.926882766681885 65.22047405121893 14.396470202688924 111.6275149636046 C 23.866057638695963 158.03455587599026 64.6866541643586 191.36807504709162 112.05000000000007 191.37 Z" paint-order="stroke" stroke-linecap="round" style="stroke: none; stroke-width: 1; stroke-dasharray: none; stroke-linecap: butt; stroke-dashoffset: 0; stroke-linejoin: miter; stroke-miterlimit: 4; fill: url(#SVGID_2_113571); fill-rule: nonzero; opacity: 1;" transform=" translate(-88.52251312008632, -99.98645293750333)"/>
</g>
</g>
</g>
</g>
</g>
<g id="text-logo" transform="matrix(1.9211538461538462 0 0 1.9211538461538462 644.5401668269232 702.2083374050032)">
<g paint-order="stroke" style="">
<g id="text-logo-path-0" transform="matrix(1 0 0 1 0 0)">
<path d="M 7.18 -1.93 L 7.18 -23.18 L 25.19 -23.18 L 25.19 -25.12 L 7.18 -25.12 L 7.18 -46.37 L 30.15 -46.37 L 30.15 -48.3 L 2.07 -48.3 L 2.07 0 L 30.15 0 L 30.15 -1.93 Z M 40.02 -48.3 L 34.29 -48.3 L 34.29 0 L 36.23 0 L 36.23 -43.13 L 52.23 0 L 57.96 0 L 71.42 -42.3 L 71.42 0 L 76.52 0 L 76.52 -48.3 L 71.42 -48.3 L 56.93 -2.76 Z M 82.59 -14.97 L 80.66 -14.97 C 81.01 -5.59 89.77 0.35 98.53 0.35 C 105.64 0.35 113.37 -3.17 115.64 -10.42 C 116.54 -13.25 116.61 -16.21 115.58 -19.18 C 113.57 -24.91 107.85 -27.26 102.67 -29.26 C 100.33 -30.15 98.05 -30.98 96.05 -32.02 C 95.01 -32.57 94.12 -32.98 93.29 -33.53 C 91.98 -34.43 90.87 -35.95 90.74 -37.61 C 90.67 -38.43 90.74 -39.33 90.94 -40.23 C 91.84 -44.23 95.77 -46.71 99.71 -46.71 C 102.26 -46.71 104.88 -45.68 106.74 -43.88 C 108.4 -42.3 109.3 -40.09 109.16 -37.88 L 111.02 -37.88 C 110.61 -44.57 104.47 -48.65 98.26 -48.65 C 91.84 -48.65 85.56 -44.02 85.56 -37.33 C 85.56 -32.43 89.56 -28.84 93.84 -27.19 C 96.26 -26.22 98.6 -25.39 100.88 -24.5 C 104.54 -23.05 109.02 -21.18 110.61 -17.32 C 111.23 -15.73 111.37 -13.59 111.02 -11.66 C 109.85 -5.24 103.22 -1.59 97.22 -1.59 C 92.12 -1.59 87.01 -4 84.25 -8.42 C 83.01 -10.42 82.46 -12.7 82.59 -14.97 Z M 120.47 -48.3 L 120.47 -46.37 L 135.86 -46.37 L 135.86 0 L 141.04 0 L 141.04 -46.37 L 156.42 -46.37 L 156.42 -48.3 Z M 160.56 -24.15 C 160.56 -10.83 170.78 0.62 183.26 0.62 C 195.82 0.62 206.03 -10.83 206.03 -24.15 C 206.03 -37.47 195.82 -48.92 183.26 -48.92 C 170.71 -48.92 160.56 -37.47 160.56 -24.15 Z M 165.67 -24.15 C 165.67 -36.43 173.54 -47.06 183.26 -47.06 C 192.99 -47.06 200.93 -36.43 200.93 -24.15 C 200.93 -11.87 192.99 -1.31 183.26 -1.31 C 173.54 -1.31 165.67 -11.87 165.67 -24.15 Z M 227.42 -48.3 L 210.17 -48.3 L 210.17 0 L 215.28 0 L 215.28 -14.56 L 221.42 -14.56 C 224.6 -14.15 227.36 -12.63 229.77 -10.7 C 233.63 -7.59 236.74 -3.66 240.53 0 C 244.26 3.59 248.06 7.45 253.16 10.07 C 255.65 11.32 258.54 12.14 261.44 12.14 C 264.41 12.14 267.17 11.25 269.51 9.87 L 268.76 8.07 C 267.03 8.56 265.31 8.83 263.65 8.83 C 258.13 8.83 253.51 5.31 249.57 1.73 C 247.71 0 245.92 -1.79 244.12 -3.66 C 239.91 -8 234.46 -12.42 228.74 -14.63 C 237.43 -15.32 244.26 -22.56 244.26 -31.46 C 244.26 -40.78 236.74 -48.3 227.42 -48.3 Z M 215.28 -16.49 L 215.28 -46.37 L 224.18 -46.37 C 232.46 -46.37 239.15 -39.68 239.15 -31.46 C 239.15 -23.18 232.46 -16.49 224.18 -16.49 Z M 256.54 -1.93 L 256.54 -23.18 L 274.55 -23.18 L 274.55 -25.12 L 256.54 -25.12 L 256.54 -46.37 L 279.52 -46.37 L 279.52 -48.3 L 251.44 -48.3 L 251.44 0 L 279.52 0 L 279.52 -1.93 Z" paint-order="stroke" stroke-linecap="round" style="stroke: none; stroke-width: 0.7278495639913387; stroke-dasharray: none; stroke-linecap: butt; stroke-dashoffset: 0; stroke-linejoin: miter; stroke-miterlimit: 4; fill: rgb(65,103,162); fill-rule: nonzero; opacity: 1;" transform=" translate(-140.795, 18.39)"/>
</g>
</g>
</g>
<g id="tagline-d3f01c9a-824c-4986-a818-082838c18832-logo" transform="matrix(1.9211538461538462 0 0 1.9211538461538462 639.9466879807692 384.3172723270562)">
<g paint-order="stroke" style="">
<g id="tagline-d3f01c9a-824c-4986-a818-082838c18832-logo-path-0" transform="matrix(1 0 0 1 0 0)">
<linearGradient gradientTransform="matrix(1 0 0 1 3.330000000000002 -77.7)" gradientUnits="userSpaceOnUse" id="SVGID_113572" x1="-3.3022101974486873" x2="-3.3022101974486873" y1="-19.884540000000015" y2="105.11545999999998">
<stop offset="0%" style="stop-color:rgb(91,36,122);stop-opacity: 1"/>
<stop offset="100%" style="stop-color:rgb(27,206,223);stop-opacity: 1"/>
</linearGradient>
<filter height="140%" id="SVGID_113568" width="168.49696668457796%" x="-34.248483342288985%" y="-20%">
<feGaussianBlur in="SourceAlpha" stdDeviation="0"/>
<feOffset dx="6.437464774046164" dy="0" result="oBlur"/>
<feFlood flood-color="rgb(217,232,232)" flood-opacity="1"/>
<feComposite in2="oBlur" operator="in"/>
<feMerge>
<feMergeNode/>
<feMergeNode in="SourceGraphic"/>
</feMerge>
</filter>
<path d="M 11.54 -3.11 L 11.54 -37.3 L 40.52 -37.3 L 40.52 -40.4 L 11.54 -40.4 L 11.54 -74.59 L 48.51 -74.59 L 48.51 -77.7 L 3.33 -77.7 L 3.33 0 L 48.51 0 L 48.51 -3.11 Z" paint-order="stroke" stroke-linecap="round" style="stroke: none; stroke-width: 0; stroke-dasharray: none; stroke-linecap: butt; stroke-dashoffset: 0; stroke-linejoin: miter; stroke-miterlimit: 4; fill: url(#SVGID_113572); fill-rule: nonzero; opacity: 1;filter: url(#SVGID_113568);" transform=" translate(-25.92, 38.85)"/>
</g>
</g>
</g>
<g id="tagline-5c738b89-07a3-4351-9a2d-505579ae2938-logo" transform="matrix(1.9211538461538462 0 0 1.9211538461538462 626.1475201923076 790.9954415260722)">
<g paint-order="stroke" style="">
<g id="tagline-5c738b89-07a3-4351-9a2d-505579ae2938-logo-path-0" transform="matrix(1 0 0 1 0 0)">
<path d="M 1.76 -15.55 L 1.76 0 L 2.64 0 L 2.64 -11.99 L 11.84 0.22 L 11.84 -15.33 L 10.96 -15.33 L 10.96 -3.34 Z M 31.26 0.22 C 35.57 0.22 39.14 -3.34 39.14 -7.7 C 39.14 -11.99 35.57 -15.55 31.26 -15.55 C 26.91 -15.55 23.36 -11.99 23.36 -7.7 C 23.36 -3.34 26.91 0.22 31.26 0.22 Z M 31.86 -0.66 C 28.18 -0.66 24.9 -3.83 24.55 -7.7 C 24.22 -11.51 26.95 -14.67 30.65 -14.67 C 34.3 -14.67 37.6 -11.51 37.93 -7.7 C 38.28 -3.83 35.53 -0.66 31.86 -0.66 Z M 49.13 -15.33 L 49.13 -14.45 L 53.5 -14.45 L 53.5 0 L 54.82 0 L 54.82 -14.45 L 59.2 -14.45 L 59.2 -15.33 Z M 78.72 -7.68 L 78.72 0 L 80.04 0 L 80.04 -15.33 L 78.72 -15.33 L 78.72 -8.54 L 71.28 -8.54 L 71.28 -15.33 L 69.96 -15.33 L 69.96 0 L 71.28 0 L 71.28 -7.68 Z M 93.65 -15.33 L 92.33 -15.33 L 92.33 0 L 93.65 0 Z M 105.93 -15.55 L 105.93 0 L 106.81 0 L 106.81 -11.99 L 116.01 0.22 L 116.01 -15.33 L 115.13 -15.33 L 115.13 -3.34 Z M 135.43 0.22 C 139.74 0.22 143.31 -3.37 143.31 -7.7 L 135.74 -7.7 L 135.74 -6.82 L 142.12 -6.82 C 142.01 -3.32 139.37 -0.66 136.03 -0.66 C 132.37 -0.66 129.07 -3.83 128.72 -7.7 C 128.39 -11.53 131.14 -14.67 134.82 -14.67 C 136.64 -14.67 138.45 -13.88 139.85 -12.47 L 141.66 -12.47 C 140.16 -14.41 137.85 -15.55 135.43 -15.55 C 131.1 -15.55 127.53 -12.01 127.53 -7.7 C 127.53 -3.34 131.1 0.22 135.43 0.22 Z M 175.14 -15.33 L 170.35 -15.33 L 170.35 0 L 176.02 0 C 178.57 0 180.62 -2.05 180.62 -4.62 C 180.62 -6.75 179.19 -8.49 177.25 -9.04 C 178.09 -9.68 178.64 -10.69 178.64 -11.86 C 178.64 -13.79 177.06 -15.33 175.14 -15.33 Z M 175.14 -9.2 L 171.67 -9.2 L 171.67 -14.45 L 175.14 -14.45 C 176.26 -14.45 177.21 -13.31 177.21 -11.86 C 177.21 -10.36 176.26 -9.2 175.14 -9.2 Z M 176.02 -0.88 L 171.67 -0.88 L 171.67 -8.32 L 176.02 -8.32 C 177.78 -8.32 179.19 -6.69 179.19 -4.62 C 179.19 -2.53 177.78 -0.88 176.02 -0.88 Z M 191.86 -15.33 L 191.86 -4.84 C 191.86 -2.02 194.11 0.22 196.92 0.22 C 199.72 0.22 201.94 -2.02 201.94 -4.84 L 201.94 -15.33 L 201.06 -15.33 L 201.06 -4.84 C 201.06 -2.64 199.32 -0.88 197.14 -0.88 C 194.92 -0.88 193.18 -2.64 193.18 -4.84 L 193.18 -15.33 Z M 212.52 -15.33 L 212.52 -14.45 L 216.9 -14.45 L 216.9 0 L 218.22 0 L 218.22 -14.45 L 222.6 -14.45 L 222.6 -15.33 Z M 247.54 -15.33 L 247.54 -14.45 L 251.92 -14.45 L 251.92 0 L 253.24 0 L 253.24 -14.45 L 257.62 -14.45 L 257.62 -15.33 Z M 277.13 -7.68 L 277.13 0 L 278.45 0 L 278.45 -15.33 L 277.13 -15.33 L 277.13 -8.54 L 269.7 -8.54 L 269.7 -15.33 L 268.38 -15.33 L 268.38 0 L 269.7 0 L 269.7 -7.68 Z M 290.75 -15.33 L 290.75 0 L 300.01 0 L 300.01 -0.88 L 292.07 -0.88 L 292.07 -8.32 L 298.94 -8.32 L 298.94 -9.2 L 292.07 -9.2 L 292.07 -14.45 L 300.01 -14.45 L 300.01 -15.33 Z M 331.78 -15.33 L 326.99 -15.33 L 326.99 0 L 332.66 0 C 335.21 0 337.26 -2.05 337.26 -4.62 C 337.26 -6.75 335.83 -8.49 333.89 -9.04 C 334.73 -9.68 335.28 -10.69 335.28 -11.86 C 335.28 -13.79 333.7 -15.33 331.78 -15.33 Z M 331.78 -9.2 L 328.31 -9.2 L 328.31 -14.45 L 331.78 -14.45 C 332.9 -14.45 333.85 -13.31 333.85 -11.86 C 333.85 -10.36 332.9 -9.2 331.78 -9.2 Z M 332.66 -0.88 L 328.31 -0.88 L 328.31 -8.32 L 332.66 -8.32 C 334.42 -8.32 335.83 -6.69 335.83 -4.62 C 335.83 -2.53 334.42 -0.88 332.66 -0.88 Z M 348.68 -15.33 L 348.68 0 L 357.94 0 L 357.94 -0.88 L 350 -0.88 L 350 -8.32 L 356.86 -8.32 L 356.86 -9.2 L 350 -9.2 L 350 -14.45 L 357.94 -14.45 L 357.94 -15.33 Z M 369.64 -3.65 L 368.32 -3.65 C 368.87 -1.03 371.1 0.22 373.87 0.22 C 376.62 0.22 379.06 -1.45 379.06 -4.14 C 379.06 -6.73 376.49 -7.88 374.11 -8.93 C 372.04 -9.86 370.11 -10.74 370.11 -12.43 C 370.11 -13.9 371.8 -14.65 373.36 -14.65 C 375.5 -14.65 376.71 -13.6 377.34 -12.45 L 378.66 -12.45 C 377.85 -14.19 376 -15.58 373.52 -15.58 C 370.66 -15.58 368.74 -14.21 368.74 -12.21 C 368.74 -9.83 371.1 -8.78 373.38 -7.77 C 375.58 -6.8 377.7 -5.85 377.7 -3.76 C 377.7 -1.85 376 -0.68 374.15 -0.68 C 372.13 -0.68 370.08 -1.54 369.64 -3.65 Z M 389.05 -15.33 L 389.05 -14.45 L 393.43 -14.45 L 393.43 0 L 394.75 0 L 394.75 -14.45 L 399.12 -14.45 L 399.12 -15.33 Z" paint-order="stroke" stroke-linecap="round" style="stroke: rgb(255,255,255); stroke-width: 0; stroke-dasharray: none; stroke-linecap: butt; stroke-dashoffset: 0; stroke-linejoin: miter; stroke-miterlimit: 4; fill: rgb(80,63,138); fill-rule: nonzero; opacity: 1;" transform=" translate(-200.44, 7.68)"/>
</g>
</g>
</g>
</svg>